<svg width="42" height="46" viewBox="0 0 42 46" fill="none" xmlns="http://www.w3.org/2000/svg">
<path fill-rule="evenodd" clip-rule="evenodd" d="M9.69018 13.8761L11.9781 30.4659H32.3696L39.0725 13.8761H9.69018ZM8.81288 11.6139C7.88456 11.6139 7.1694 12.4196 7.29424 13.3248L9.79012 31.4228C9.89324 32.1705 10.542 32.7282 11.3088 32.7282H32.8896C33.5174 32.7282 34.0817 32.3513 34.3137 31.7772L41.6259 13.6792C42.026 12.689 41.2846 11.6139 40.2018 11.6139H8.81288Z" fill="#B27A41"/>
<path fill-rule="evenodd" clip-rule="evenodd" d="M12.8821 43.7378C14.9981 43.7378 16.7135 42.0497 16.7135 39.9674C16.7135 37.885 14.9981 36.197 12.8821 36.197C10.766 36.197 9.05067 37.885 9.05067 39.9674C9.05067 42.0497 10.766 43.7378 12.8821 43.7378ZM12.8821 46C16.2677 46 19.0123 43.2991 19.0123 39.9674C19.0123 36.6356 16.2677 33.9347 12.8821 33.9347C9.49643 33.9347 6.75183 36.6356 6.75183 39.9674C6.75183 43.2991 9.49643 46 12.8821 46Z" fill="#B27A41"/>
<path d="M14.7211 40.0428C14.7211 41.0839 13.8634 41.928 12.8054 41.928C11.7474 41.928 10.8897 41.0839 10.8897 40.0428C10.8897 39.0016 11.7474 38.1575 12.8054 38.1575C13.8634 38.1575 14.7211 39.0016 14.7211 40.0428Z" fill="#B27A41"/>
<path fill-rule="evenodd" clip-rule="evenodd" d="M30.5065 43.7378C32.6225 43.7378 34.3378 42.0497 34.3378 39.9674C34.3378 37.885 32.6225 36.197 30.5065 36.197C28.3904 36.197 26.6751 37.885 26.6751 39.9674C26.6751 42.0497 28.3904 43.7378 30.5065 43.7378ZM30.5065 46C33.8921 46 36.6367 43.2991 36.6367 39.9674C36.6367 36.6356 33.8921 33.9347 30.5065 33.9347C27.1208 33.9347 24.3762 36.6356 24.3762 39.9674C24.3762 43.2991 27.1208 46 30.5065 46Z" fill="#B27A41"/>
<path d="M32.3455 40.0428C32.3455 41.0839 31.4878 41.928 30.4298 41.928C29.3718 41.928 28.5141 41.0839 28.5141 40.0428C28.5141 39.0016 29.3718 38.1575 30.4298 38.1575C31.4878 38.1575 32.3455 39.0016 32.3455 40.0428Z" fill="#B27A41"/>
<path d="M0.161815 2.18781C0.161821 1.47982 0.745049 0.905877 1.46449 0.905877L6.35518 0.905879C7.50665 0.90588 8.48099 1.74386 8.6289 2.86762C10.0189 13.4283 11.157 24.8899 12.5804 35.331L10.302 35.6318L8.36613 21.4314L6.1075 5.42094C5.94972 4.30246 4.97797 3.46977 3.83051 3.46977L1.46449 3.46977C0.745039 3.46977 0.161808 2.89581 0.161815 2.18781Z" fill="#B27A41"/>
<path d="M16.7135 39.0625H26.5218V41.0231H16.7135V39.0625Z" fill="#B27A41"/>
<path d="M9.97014 20.6628H36.6366V22.9251H9.97014V20.6628Z" fill="#B27A41"/>
<path d="M14.7211 12.7162L16.9701 12.4452L19.2952 31.1305L17.0463 31.4015L14.7211 12.7162Z" fill="#B27A41"/>
<path d="M28.6997 12.2171L30.9462 12.5067L28.4618 31.1721L26.2153 30.8825L28.6997 12.2171Z" fill="#B27A41"/>
</svg>
