<svg width="44" height="44" viewBox="0 0 44 44" fill="none" xmlns="http://www.w3.org/2000/svg">
<path fill-rule="evenodd" clip-rule="evenodd" d="M22 41.0385C32.7908 41.0385 41.2252 32.3359 41.2252 22C41.2252 11.6641 32.7908 2.96154 22 2.96154C11.2092 2.96154 2.77477 11.6641 2.77477 22C2.77477 32.3359 11.2092 41.0385 22 41.0385ZM22 44C34.1503 44 44 34.1503 44 22C44 9.84974 34.1503 0 22 0C9.84974 0 0 9.84974 0 22C0 34.1503 9.84974 44 22 44Z" fill="#B27A41"/>
<path d="M29.3334 19.4615C29.3334 23.6674 26.0502 27.0769 22.0001 27.0769C17.95 27.0769 14.6667 23.6674 14.6667 19.4615C14.6667 15.2557 17.95 11.8462 22.0001 11.8462C26.0502 11.8462 29.3334 15.2557 29.3334 19.4615Z" fill="#B27A41"/>
<path d="M33.193 35.3725C33.193 41.2127 28.576 42.3077 21.7761 42.3077C14.9762 42.3077 10.807 39.5051 10.807 35.3725C10.807 31.24 14.9762 23.6923 21.7761 23.6923C28.576 23.6923 33.193 31.24 33.193 35.3725Z" fill="#B27A41"/>
</svg>
