<svg width="224" height="83" viewBox="0 0 224 83" fill="none" xmlns="http://www.w3.org/2000/svg">
<path d="M202.514 49.216C202.326 48.768 201.886 48.768 201.509 48.576C200.693 48.128 199.876 47.808 199.122 47.36C197.928 46.72 196.923 45.888 196.106 44.864C195.101 43.712 194.662 42.496 194.662 41.152C194.662 40.512 194.787 39.872 194.976 39.168C195.541 37.12 196.672 35.392 198.054 33.856C199.876 31.744 201.949 29.952 204.336 28.544C205.216 28.032 206.095 27.584 207.101 27.392C207.54 27.328 207.917 27.264 208.357 27.264C209.613 27.264 210.681 27.712 211.624 28.672C212.189 29.184 212.44 29.696 212.44 30.336C212.44 30.848 212.252 31.36 211.875 31.808C211.687 32 211.624 32.128 211.372 32.128H211.247C210.933 32.064 210.87 31.744 210.87 31.424C210.87 31.296 210.933 31.104 210.933 30.976V30.848C210.933 30.592 210.807 30.464 210.619 30.464C210.493 30.464 210.43 30.464 210.304 30.528C209.928 30.656 209.488 30.784 209.111 31.04C205.467 32.896 202.389 35.456 200.001 38.848C199.248 39.936 198.682 41.152 198.368 42.56C198.305 42.816 198.305 43.008 198.305 43.2C198.305 44.096 198.682 44.8 199.499 45.312C201.007 46.272 202.64 47.104 204.148 48C204.273 48.064 204.462 48.128 204.588 48.128C204.902 48.128 205.153 47.936 205.404 47.808C207.352 46.784 209.299 45.824 211.184 44.8C214.953 42.944 218.723 41.088 222.618 39.488C222.932 39.36 223.372 39.104 223.623 39.104C223.749 39.104 223.874 39.168 223.937 39.296C224 39.36 224 39.488 224 39.552C224 40 223.309 40 222.932 40.192C217.278 42.496 211.812 45.248 206.472 48.192C206.347 48.256 206.221 48.32 206.033 48.448C205.718 48.64 205.53 48.768 205.53 48.896C205.53 49.024 205.656 49.216 205.907 49.472C206.095 49.664 206.347 49.92 206.535 50.176C207.415 51.264 207.792 52.416 207.792 53.504C207.792 54.656 207.415 55.744 206.598 56.832C205.781 57.856 204.839 58.688 203.771 59.392C199.373 62.336 194.536 64.128 189.384 64.96C188.945 65.024 188.505 65.024 188.002 65.024H186.557C186.369 65.024 186.118 64.96 185.866 64.896C184.61 64.512 183.982 63.936 183.982 63.104C183.982 62.656 184.233 62.016 184.735 61.376C185.929 59.904 187.437 58.752 189.007 57.664C192.84 54.976 196.86 52.544 201.007 50.24C201.446 49.984 201.823 49.728 202.263 49.472C202.389 49.408 202.452 49.344 202.514 49.216ZM187.248 63.68C187.625 63.616 188.002 63.616 188.442 63.488C191.458 62.912 194.285 61.824 196.986 60.352C199.185 59.136 201.132 57.728 202.829 55.872C203.582 54.976 204.211 54.08 204.588 52.928C204.713 52.544 204.776 52.16 204.776 51.776C204.776 51.328 204.65 50.944 204.399 50.496C204.211 50.112 203.959 49.92 203.645 49.92C203.52 49.92 203.331 49.984 203.08 50.112C202.389 50.496 201.761 50.88 201.069 51.264C197.112 53.632 193.154 56.064 189.51 58.88C188.316 59.84 187.248 60.864 186.369 62.016C186.18 62.336 185.929 62.656 185.929 63.04C185.929 63.168 185.929 63.232 185.992 63.36C186.118 63.616 186.369 63.68 186.62 63.68H187.248Z" fill="#B27A41"/>
<path d="M174.334 45.44C174.397 43.392 174.774 41.472 175.465 39.616C176.281 37.44 177.287 35.392 178.543 33.408C179.046 32.64 179.737 32.32 180.428 32.32C181.307 32.32 182.124 32.768 182.627 33.344C182.815 33.6 182.941 33.856 182.941 34.112C182.941 34.368 182.878 34.56 182.752 34.816C182.312 35.648 181.873 36.544 181.433 37.376C180.239 39.552 179.108 41.728 178.417 44.16C178.103 45.248 177.852 46.336 177.852 47.424C177.852 47.936 177.915 48.384 178.103 48.768C178.355 49.344 178.731 49.6 179.297 49.6H179.674C180.993 49.344 182.25 48.768 183.443 48.128C186.396 46.464 189.034 44.416 191.61 42.24L194.814 39.552C194.94 39.424 195.128 39.296 195.317 39.168C195.505 39.04 195.694 38.976 195.945 38.976C196.071 38.976 196.196 38.976 196.259 39.168C196.322 39.232 196.385 39.296 196.385 39.36C196.385 39.552 196.008 39.744 195.882 39.872C192.49 42.944 189.034 45.952 185.265 48.512C184.26 49.216 183.192 49.792 182.061 50.304C181.182 50.688 180.302 50.944 179.297 50.944C179.108 50.944 178.857 50.88 178.606 50.88C176.47 50.752 174.962 49.408 174.522 47.296C174.334 46.656 174.334 46.08 174.334 45.44ZM180.616 27.52C180.616 25.92 181.935 24.512 183.38 24.448C184.888 24.448 186.207 25.536 186.207 26.816C186.145 28.48 184.825 30.144 183.506 30.144C181.935 30.144 180.679 28.928 180.616 27.52Z" fill="#B27A41"/>
<path d="M158.297 37.12C157.857 37.632 157.543 38.08 157.229 38.464C154.088 42.56 150.884 46.592 147.428 50.432C146.423 51.584 145.355 52.672 143.973 53.376C143.345 53.696 142.717 53.888 142.088 53.888C141.209 53.888 140.329 53.568 139.575 52.928C138.759 52.288 138.382 51.52 138.319 50.496C138.319 49.344 138.507 48.256 138.822 47.168C140.392 41.408 143.408 36.48 147.868 32.576C149.439 31.168 151.198 30.336 153.334 30.336C155.47 30.336 157.354 31.04 158.799 32.704C159.113 33.024 159.302 33.152 159.49 33.152C159.679 33.152 159.867 32.96 160.119 32.64C163.008 28.864 165.961 25.088 168.725 21.184C169.919 19.456 170.736 17.472 171.804 15.68C173.877 11.904 176.013 8.192 178.651 4.8C179.468 3.84 180.285 2.944 181.29 2.176C181.541 1.92 181.855 1.728 182.17 1.728C182.358 1.728 182.484 1.792 182.609 1.856C183.049 2.048 183.238 2.304 183.238 2.56C183.238 2.752 183.175 2.944 183.049 3.136C182.609 3.904 182.107 4.672 181.604 5.44C175.133 15.68 169.731 26.496 165.459 37.952C163.574 43.008 162.129 48.256 161.312 53.632C161.061 55.168 160.935 56.64 160.935 58.176C160.935 59.2 160.998 60.288 161.187 61.312C161.312 61.824 161.375 62.272 161.752 62.72C162.255 62.528 162.443 62.08 162.694 61.696C162.883 61.44 163.008 61.12 163.323 60.928C163.511 60.8 163.637 60.8 163.762 60.8C163.951 60.8 164.076 60.8 164.202 60.928C164.391 61.056 164.516 61.248 164.516 61.44C164.516 61.504 164.453 61.568 164.453 61.696C164.139 62.528 163.762 63.296 163.197 63.936C162.883 64.256 162.443 64.384 162.066 64.384C161.815 64.384 161.501 64.32 161.249 64.256C160.119 64 159.365 63.296 158.862 62.272C158.234 60.864 157.983 59.392 157.983 57.856C157.983 57.408 157.983 56.96 158.045 56.512C158.799 46.976 161.501 37.888 165.207 29.12C165.459 28.48 165.647 27.904 165.961 27.264C165.459 27.264 165.396 27.584 165.207 27.776C163.637 29.888 162.129 31.936 160.558 34.048C160.307 34.432 160.119 34.816 160.119 35.264C160.119 35.392 160.119 35.584 160.181 35.776C160.244 36.16 160.244 36.544 160.244 36.864C160.244 37.44 160.181 37.952 160.056 38.464C159.993 38.72 159.93 38.912 159.805 39.168C159.616 39.424 159.428 39.616 159.113 39.616H158.988C158.674 39.488 158.485 39.232 158.485 38.848V38.336C158.485 37.952 158.485 37.568 158.297 37.12ZM141.963 51.456C142.088 51.584 142.151 51.648 142.277 51.648C142.34 51.648 142.34 51.584 142.402 51.584C142.717 51.392 142.968 51.2 143.219 51.008C145.167 49.6 146.863 47.808 148.559 46.08C151.637 42.944 154.465 39.616 157.292 36.16C157.48 35.904 157.731 35.648 157.731 35.264V35.072C157.606 33.856 156.915 33.152 155.909 33.152C155.595 33.152 155.281 33.216 154.967 33.344C153.962 33.728 153.02 34.368 152.14 35.008C150.758 36.16 149.502 37.504 148.371 38.912C146.046 41.728 144.099 44.736 142.779 48.192C142.402 49.28 142.088 50.368 141.963 51.456Z" fill="#B27A41"/>
<path d="M143.23 39.296C143.23 39.552 143.104 39.616 142.915 39.808C140.214 42.368 137.638 45.12 134.748 47.424C133.869 48.128 132.989 48.704 132.047 49.152C131.293 49.472 130.539 49.664 129.785 49.664C128.843 49.664 127.964 49.408 127.084 48.768C125.953 48 125.388 46.848 125.136 45.568C124.948 44.672 124.822 43.84 124.822 42.944C124.822 42.304 124.885 41.728 125.011 41.088C125.011 40.896 125.074 40.704 125.074 40.512V40.256C125.074 40.128 125.074 40 124.948 39.936C124.885 39.872 124.822 39.872 124.76 39.872C124.571 39.872 124.445 40 124.32 40.128C123.315 40.96 122.372 41.92 121.493 42.88C119.168 45.376 116.969 48 114.394 50.24C113.64 50.88 112.949 51.584 112.069 52.096C111.441 52.416 110.813 52.608 110.185 52.608C109.556 52.608 108.991 52.416 108.363 52.032C107.42 51.392 107.043 50.432 107.043 49.408C107.043 49.152 107.043 48.896 107.106 48.64C107.295 46.208 108.049 43.968 109.054 41.728C110.059 39.488 111.315 37.376 113.012 35.52C114.833 33.408 117.032 32.064 119.859 32.064H120.425C122.938 32.256 124.885 33.664 125.639 36.16C125.765 36.48 125.89 36.608 126.079 36.608C126.142 36.608 126.267 36.608 126.393 36.544C126.644 36.48 126.896 36.416 127.084 36.416C128.089 36.416 128.843 37.184 128.843 38.272C128.843 38.4 128.78 38.592 128.78 38.72C128.529 40.32 128.152 41.856 127.964 43.52C127.901 44.096 127.901 44.672 127.901 45.184C127.901 45.696 127.901 46.144 128.026 46.592C128.278 47.936 128.906 48.576 129.848 48.576C130.225 48.576 130.665 48.448 131.168 48.256C132.173 47.808 133.178 47.168 134.12 46.528C136.256 44.928 138.204 43.136 140.151 41.28C140.842 40.704 141.471 40.064 142.162 39.424C142.413 39.232 142.601 39.04 142.853 39.04C142.978 39.04 143.104 39.104 143.23 39.168V39.296ZM110.122 50.24C110.122 50.816 110.247 51.136 110.624 51.136C110.75 51.136 110.938 51.072 111.19 50.944C111.818 50.56 112.509 50.112 113.074 49.6C116.969 46.528 120.362 42.944 123.629 39.296C123.943 38.976 124.131 38.592 124.131 38.144C124.131 38.016 124.068 37.888 124.068 37.76C123.817 36.928 123.503 36.096 123 35.392C122.624 34.88 122.372 34.624 121.995 34.624C121.744 34.624 121.493 34.688 121.116 34.88C119.922 35.392 118.854 36.096 117.849 36.992C114.645 40 112.258 43.584 110.687 47.68C110.436 48.512 110.247 49.408 110.122 50.24Z" fill="#B27A41"/>
<path d="M101.442 28.352C100.186 29.312 99.1806 30.4 98.2382 31.552C94.2176 36.416 90.6995 41.728 87.4955 47.232C86.5531 49.024 85.6108 50.816 84.48 52.48C83.9146 53.376 83.4748 53.696 82.9094 53.696C82.7209 53.696 82.5325 53.696 82.2812 53.632C81.276 53.376 80.7106 52.608 80.6478 51.328V51.008C80.6478 49.728 81.0247 48.576 81.4016 47.36C82.5953 43.712 84.3543 40.32 86.3018 37.056C86.8044 36.288 87.3698 35.584 87.6211 34.752C87.4955 34.688 87.4327 34.624 87.307 34.624C87.1185 34.624 86.9929 34.816 86.8044 34.88C85.6736 35.712 84.6056 36.608 83.6004 37.568C81.4016 39.744 79.2028 42.048 77.1297 44.352C76.1873 45.44 75.1821 46.464 74.0513 47.36C73.109 48.064 72.2295 48.448 71.4127 48.448C70.0935 48.448 68.9626 47.552 68.2088 45.888C67.8318 44.992 67.6434 44.096 67.6434 43.2C67.6434 42.752 67.7062 42.24 67.769 41.728C67.8947 41.216 68.0831 40.704 68.0831 40.128V39.872C67.5177 39.872 67.2036 40.256 66.8267 40.512C64.8791 41.984 63.2457 43.84 61.4867 45.568C59.6648 47.424 57.9058 49.472 55.8954 51.136C55.2044 51.712 54.5133 52.16 53.6338 52.224H53.5081C51.6863 52.224 50.4926 51.072 50.3042 49.28C50.3042 48.96 50.2413 48.64 50.2413 48.32C50.2413 47.04 50.4926 45.76 50.8696 44.608C51.8119 41.664 53.194 38.912 55.1415 36.48C56.2724 35.072 57.5916 33.856 59.225 33.024C60.4187 32.384 61.6752 32.064 62.9316 32.064C63.9996 32.064 65.0676 32.32 66.1356 32.832C67.5177 33.536 68.3972 34.624 68.5229 36.224C68.6485 37.056 68.8998 37.504 69.8422 37.696C70.7845 38.016 71.3499 38.848 71.3499 40V40.384C71.2243 41.536 71.0358 42.688 70.8473 43.84C70.7845 44.288 70.7217 44.8 70.7217 45.248C70.7217 45.696 70.7845 46.08 70.9102 46.528C71.0358 47.04 71.2243 47.296 71.5384 47.296C71.664 47.296 71.8525 47.232 72.1038 47.104C72.8577 46.656 73.6116 46.08 74.3026 45.504C77.004 43.264 79.3285 40.576 81.8414 38.08C83.2863 36.544 84.8569 35.008 86.4275 33.664L88.1237 32.32C88.6891 31.936 89.2545 31.744 89.7571 31.744C90.6366 31.744 91.3905 32.192 92.0188 33.088C92.27 33.472 92.4585 33.92 92.4585 34.432C92.4585 34.56 92.3957 34.688 92.3957 34.816C92.2072 35.712 91.8303 36.544 91.3905 37.376C90.1969 39.808 88.6891 42.112 87.3698 44.48C87.1185 44.864 86.9301 45.248 86.8044 45.76C87.1185 45.504 87.307 45.184 87.5583 44.8C90.5738 40.128 93.6522 35.52 97.1703 31.168C98.1754 29.824 99.2434 28.544 100.437 27.328L101.065 26.688C101.568 26.24 102.07 25.856 102.636 25.856C102.887 25.856 103.138 25.92 103.39 26.048C104.144 26.432 104.646 27.264 104.646 28.224V28.544C104.521 29.376 104.395 30.208 104.144 31.04C103.641 32.832 103.138 34.624 102.887 36.48C102.824 36.864 102.824 37.184 102.824 37.568V38.08C102.887 38.784 103.076 39.04 103.515 39.04C103.704 39.04 103.892 39.04 104.081 38.976C104.898 38.784 105.651 38.464 106.342 37.952C106.468 37.888 106.657 37.76 106.845 37.76C106.908 37.76 107.033 37.76 107.096 37.888C107.159 38.016 107.222 38.08 107.222 38.208C107.222 38.4 107.096 38.592 106.908 38.784C106.028 39.552 105.086 40.192 103.892 40.384C103.767 40.384 103.641 40.448 103.515 40.448C102.385 40.448 101.065 39.36 100.626 37.952C100.311 37.056 100.186 36.16 100.186 35.328C100.186 34.816 100.249 34.368 100.311 33.92C100.563 32.32 100.877 30.72 101.442 29.184C101.505 29.056 101.568 28.928 101.568 28.736C101.568 28.608 101.568 28.48 101.442 28.352ZM53.571 50.688C54.7018 50.368 55.5185 49.6 56.2724 48.96C59.7905 45.76 63.0573 42.432 66.5125 39.168C66.7638 38.848 66.9523 38.592 66.9523 38.272C66.9523 38.144 66.8895 38.08 66.8895 37.952C66.6382 36.992 66.3241 36.096 65.8843 35.264C65.633 34.752 65.3817 34.496 64.942 34.496C64.7535 34.496 64.565 34.56 64.3137 34.624C63.4342 34.944 62.6803 35.456 61.9893 35.968C60.8584 36.864 59.9161 37.888 59.0366 38.976C56.7121 41.792 54.8274 44.928 53.8223 48.576C53.6966 49.088 53.571 49.6 53.571 50.24V50.688Z" fill="#B27A41"/>
<path d="M11.2454 45.504C11.9364 45.376 12.6275 45.056 13.2557 44.8C18.7841 42.56 24.0613 39.936 29.4013 37.248C35.0553 34.432 40.5838 31.36 45.8609 27.776C48.6251 25.856 51.2637 23.744 53.5254 21.248C55.0959 19.584 56.3524 17.664 57.2948 15.616C57.7973 14.528 58.1115 13.44 58.2999 12.288C58.3627 11.904 58.3627 11.584 58.3627 11.2C58.3627 9.728 57.8602 8.384 56.7922 7.232C55.787 6.144 54.5934 5.376 53.2741 4.8C50.9496 3.712 48.4367 3.2 45.8609 3.008C44.3532 2.88 42.8454 2.816 41.3377 2.816C32.0398 2.816 23.3074 5.312 14.9519 9.664C13.3185 10.56 11.7479 11.648 10.303 12.864C9.54912 13.44 8.92089 14.144 8.54395 15.04C8.41831 15.36 8.35548 15.616 8.35548 15.872C8.35548 16.384 8.6696 16.704 9.36065 16.896C9.80042 17.024 10.2402 17.024 10.6799 17.152C10.8684 17.216 10.9941 17.344 10.9941 17.536V17.6C10.9941 17.856 10.8056 17.92 10.6799 17.92C10.4915 17.92 10.2402 17.984 10.0517 17.984C9.10936 17.984 8.22984 17.664 7.60161 16.832C7.22467 16.32 7.09902 15.872 7.09902 15.36C7.09902 14.912 7.22467 14.4 7.47596 13.888C8.04137 12.736 8.85807 11.776 9.86324 10.944C13.0044 8.32 16.5853 6.464 20.3547 4.928C25.5062 2.752 30.909 1.152 36.4375 0.447998C38.6363 0.191998 40.8351 0 42.9711 0C45.484 0 47.9969 0.255997 50.5098 0.896C53.3369 1.6 55.787 2.816 57.7973 4.992C59.7449 7.232 60.75 9.856 60.9385 12.8V13.696C60.9385 17.344 59.4936 20.48 57.3576 23.36C55.2216 26.176 52.5202 28.416 49.6931 30.464C45.7353 33.216 41.4633 35.392 37.1285 37.44C30.5949 40.512 23.9985 43.392 17.2136 46.016C15.0776 46.848 12.8159 47.552 10.6171 48.192C10.1145 48.32 9.61195 48.512 9.42348 49.088C7.53878 53.76 5.59126 58.368 4.52327 63.296C4.39762 63.872 4.27198 64.384 4.27198 65.024V65.28H4.52327C4.71174 65.088 4.96303 64.832 5.27715 64.832C5.33997 64.832 5.46562 64.896 5.59126 65.024C5.71691 65.152 5.71691 65.28 5.71691 65.408C5.71691 65.664 5.46562 65.984 5.21432 66.24C4.96303 66.496 4.64892 66.688 4.27198 66.688C4.14633 66.688 4.02068 66.624 3.89504 66.624C2.51293 66.368 1.75905 65.344 1.75905 63.808V63.296C1.8847 61.376 2.26163 59.52 2.76422 57.664C3.39245 55.424 4.14633 53.248 4.90021 51.008C5.02586 50.752 5.21432 50.432 5.21432 50.048C5.21432 49.984 5.1515 49.92 5.1515 49.792C4.20915 49.792 3.32963 50.112 2.4501 50.304C2.01034 50.368 1.57058 50.496 1.13082 50.56C0.565409 50.56 0.0628232 50.176 0 49.6V49.408C0 48.96 0.439762 48.896 0.816701 48.768C2.19881 48.384 3.58092 48 4.96303 47.68C5.9682 47.424 6.53361 46.848 6.91055 45.888C10.7428 36.544 14.8263 27.392 19.4124 18.432C20.6688 15.936 22.0509 13.568 23.3702 11.136C23.6843 10.56 23.9985 10.304 24.501 10.304C24.6267 10.304 24.8152 10.368 25.0036 10.368C25.5062 10.496 26.0088 10.688 26.5114 10.944C27.3281 11.52 27.7678 12.032 27.7678 12.736C27.7678 13.12 27.6422 13.504 27.4537 14.016C26.5742 16.192 25.3177 18.304 24.1241 20.352C19.7893 27.84 15.7058 35.392 11.9992 43.264C11.7479 43.904 11.4338 44.544 11.1825 45.184C11.1825 45.248 11.1825 45.312 11.2454 45.504Z" fill="#B27A41"/>
<path d="M181.201 78.328C181.201 78.6453 181.233 78.8787 181.297 79.028C181.361 79.1773 181.476 79.2753 181.641 79.322C181.815 79.3687 182.058 79.3967 182.369 79.406V79.728H179.263V79.406C179.465 79.3967 179.625 79.3687 179.744 79.322C179.864 79.2753 179.951 79.1773 180.006 79.028C180.06 78.8787 180.088 78.6453 180.088 78.328V75.626C179.969 75.7007 179.79 75.738 179.552 75.738H176.9C176.698 75.738 176.552 75.7707 176.46 75.836C176.368 75.9013 176.323 76.0273 176.323 76.214V78.328C176.323 78.6453 176.355 78.8787 176.419 79.028C176.483 79.1773 176.597 79.2753 176.762 79.322C176.936 79.3687 177.179 79.3967 177.491 79.406V79.728H174.385V79.406C174.586 79.3967 174.747 79.3687 174.866 79.322C174.985 79.2753 175.072 79.1773 175.127 79.028C175.182 78.8787 175.209 78.6453 175.209 78.328V73.778C175.209 73.4513 175.177 73.218 175.113 73.078C175.049 72.9287 174.935 72.8307 174.77 72.784C174.605 72.7373 174.362 72.7093 174.041 72.7V72.378H177.147V72.7C176.946 72.7093 176.785 72.7373 176.666 72.784C176.547 72.8307 176.46 72.9287 176.405 73.078C176.35 73.218 176.323 73.4513 176.323 73.778V75.346C176.442 75.2713 176.625 75.234 176.872 75.234H179.525C179.708 75.234 179.841 75.2107 179.923 75.164C180.015 75.1173 180.07 75.0333 180.088 74.912V73.778C180.088 73.4513 180.056 73.218 179.992 73.078C179.928 72.9287 179.813 72.8307 179.648 72.784C179.483 72.7373 179.241 72.7093 178.92 72.7V72.378H182.026V72.7C181.824 72.7093 181.664 72.7373 181.545 72.784C181.426 72.8307 181.339 72.9287 181.284 73.078C181.229 73.218 181.201 73.4513 181.201 73.778V78.328Z" fill="#B27A41"/>
<path d="M172.361 78.328C172.48 78.664 172.585 78.9067 172.677 79.056C172.778 79.196 172.888 79.2847 173.007 79.322C173.126 79.3593 173.277 79.3873 173.46 79.406V79.728H170.506V79.406C170.771 79.3873 170.973 79.3593 171.11 79.322C171.248 79.2753 171.321 79.1773 171.33 79.028C171.349 78.8787 171.298 78.6453 171.179 78.328L170.671 76.844C170.625 76.8907 170.556 76.9233 170.465 76.942C170.373 76.9513 170.277 76.956 170.176 76.956H168.898C168.705 76.956 168.559 76.9793 168.458 77.026C168.357 77.0727 168.275 77.1847 168.211 77.362L167.84 78.328C167.702 78.7013 167.693 78.972 167.812 79.14C167.94 79.2987 168.261 79.3873 168.774 79.406V79.728H166.218V79.406C166.438 79.3873 166.626 79.294 166.782 79.126C166.937 78.958 167.084 78.692 167.221 78.328L169.118 73.47C169.209 73.2367 169.292 73.0033 169.365 72.77C169.448 72.5367 169.521 72.2987 169.585 72.056H170.203C170.268 72.2987 170.341 72.5367 170.423 72.77C170.506 73.0033 170.584 73.2367 170.657 73.47L172.361 78.328ZM170.162 76.452C170.3 76.452 170.387 76.4287 170.423 76.382C170.46 76.326 170.446 76.2187 170.382 76.06L169.599 73.792H169.571L168.541 76.508C168.586 76.48 168.637 76.466 168.692 76.466C168.756 76.4567 168.825 76.452 168.898 76.452H170.162Z" fill="#B27A41"/>
<path d="M160.562 79.728V79.406C160.763 79.3967 160.924 79.3687 161.043 79.322C161.162 79.2753 161.249 79.1773 161.304 79.028C161.359 78.8787 161.386 78.6453 161.386 78.328V73.778C161.386 73.4513 161.354 73.218 161.29 73.078C161.226 72.9287 161.111 72.8307 160.946 72.784C160.782 72.7373 160.539 72.7093 160.218 72.7V72.378H161.386C161.954 72.378 162.403 72.3687 162.733 72.35C163.072 72.322 163.374 72.308 163.64 72.308C164.62 72.308 165.321 72.4713 165.743 72.798C166.173 73.1247 166.389 73.5353 166.389 74.03C166.389 74.282 166.329 74.5527 166.21 74.842C166.091 75.122 165.894 75.3787 165.619 75.612C165.344 75.8453 164.973 76.0227 164.506 76.144C164.039 76.256 163.461 76.2793 162.774 76.214V75.794C163.269 75.8407 163.672 75.8173 163.984 75.724C164.304 75.6307 164.552 75.4953 164.726 75.318C164.9 75.1407 165.019 74.9493 165.083 74.744C165.147 74.5293 165.179 74.324 165.179 74.128C165.179 73.6333 165.028 73.2927 164.726 73.106C164.423 72.91 164.029 72.812 163.544 72.812C163.187 72.812 162.921 72.868 162.747 72.98C162.582 73.0827 162.499 73.3487 162.499 73.778V78.328C162.499 78.6453 162.531 78.8787 162.596 79.028C162.669 79.1773 162.806 79.2753 163.008 79.322C163.219 79.3687 163.526 79.3967 163.929 79.406V79.728H160.562Z" fill="#B27A41"/>
<path d="M155.183 72.168C155.944 72.168 156.599 72.35 157.149 72.714C157.707 73.078 158.138 73.5587 158.44 74.156C158.752 74.744 158.908 75.3787 158.908 76.06C158.908 76.7507 158.747 77.39 158.427 77.978C158.115 78.566 157.68 79.042 157.121 79.406C156.562 79.7607 155.907 79.938 155.156 79.938C154.405 79.938 153.75 79.756 153.191 79.392C152.641 79.028 152.21 78.552 151.899 77.964C151.597 77.3667 151.445 76.7273 151.445 76.046C151.445 75.3553 151.601 74.716 151.913 74.128C152.224 73.54 152.659 73.0687 153.218 72.714C153.786 72.35 154.441 72.168 155.183 72.168ZM155.348 79.378C155.907 79.378 156.361 79.2427 156.709 78.972C157.057 78.692 157.314 78.3233 157.478 77.866C157.653 77.3993 157.74 76.8907 157.74 76.34C157.74 75.6773 157.63 75.0753 157.41 74.534C157.199 73.9833 156.892 73.5447 156.489 73.218C156.086 72.8913 155.591 72.728 155.005 72.728C154.446 72.728 153.988 72.868 153.631 73.148C153.282 73.4187 153.026 73.7827 152.861 74.24C152.696 74.6973 152.614 75.206 152.614 75.766C152.614 76.4287 152.719 77.0353 152.93 77.586C153.15 78.1273 153.461 78.5613 153.864 78.888C154.276 79.2147 154.771 79.378 155.348 79.378Z" fill="#B27A41"/>
<path d="M143.977 72.378H150.381V74.562H150.065C150.056 74.2353 150.01 73.946 149.927 73.694C149.845 73.442 149.698 73.246 149.488 73.106C149.277 72.9567 148.961 72.882 148.539 72.882H147.742V78.328C147.742 78.6453 147.774 78.8787 147.838 79.028C147.903 79.1773 148.017 79.2753 148.182 79.322C148.356 79.3687 148.599 79.3967 148.91 79.406V79.728H145.805V79.406C146.006 79.3967 146.166 79.3687 146.286 79.322C146.405 79.2753 146.492 79.1773 146.547 79.028C146.602 78.8787 146.629 78.6453 146.629 78.328V72.882H145.805C145.392 72.882 145.081 72.9567 144.87 73.106C144.659 73.246 144.513 73.442 144.43 73.694C144.357 73.946 144.311 74.2353 144.293 74.562H143.977V72.378Z" fill="#B27A41"/>
<path d="M140.022 79.938C139.363 79.938 138.79 79.826 138.305 79.602C137.819 79.378 137.42 79.084 137.109 78.72C136.797 78.3467 136.564 77.936 136.408 77.488C136.262 77.0307 136.188 76.5733 136.188 76.116C136.188 75.3973 136.358 74.7393 136.697 74.142C137.045 73.5447 137.53 73.0687 138.153 72.714C138.776 72.35 139.505 72.168 140.338 72.168C140.797 72.168 141.241 72.2193 141.672 72.322C142.102 72.4247 142.473 72.546 142.785 72.686V74.492H142.469C142.377 73.876 142.107 73.428 141.658 73.148C141.218 72.868 140.71 72.728 140.132 72.728C139.271 72.728 138.602 73.008 138.126 73.568C137.659 74.1187 137.425 74.8747 137.425 75.836C137.425 76.2653 137.475 76.69 137.576 77.11C137.677 77.53 137.833 77.9127 138.043 78.258C138.263 78.594 138.538 78.8647 138.868 79.07C139.207 79.2753 139.61 79.378 140.077 79.378C140.517 79.378 140.925 79.2847 141.3 79.098C141.676 78.9113 141.992 78.6453 142.249 78.3C142.514 77.9547 142.688 77.544 142.771 77.068H143.087L143.005 78.664C142.721 79.0467 142.317 79.3547 141.795 79.588C141.282 79.8213 140.691 79.938 140.022 79.938Z" fill="#B27A41"/>
<path d="M128.916 79.728V79.406C129.118 79.3967 129.278 79.3687 129.397 79.322C129.516 79.2753 129.603 79.1773 129.658 79.028C129.713 78.8787 129.741 78.6453 129.741 78.328V73.778C129.741 73.4513 129.709 73.218 129.645 73.078C129.581 72.9287 129.466 72.8307 129.301 72.784C129.136 72.7373 128.893 72.7093 128.573 72.7V72.378H134.111V74.072H133.795C133.786 73.8107 133.74 73.596 133.658 73.428C133.575 73.2507 133.424 73.1153 133.204 73.022C132.993 72.9287 132.677 72.882 132.256 72.882H131.459C131.266 72.882 131.115 72.9287 131.005 73.022C130.904 73.1153 130.854 73.3673 130.854 73.778V75.556C130.927 75.5 131.014 75.4627 131.115 75.444C131.225 75.4253 131.353 75.416 131.5 75.416H132.641C132.906 75.416 133.108 75.36 133.245 75.248C133.392 75.136 133.47 74.926 133.479 74.618H133.795V76.718H133.479C133.47 76.41 133.406 76.2 133.286 76.088C133.177 75.976 132.961 75.92 132.641 75.92H131.527C131.28 75.92 131.106 75.962 131.005 76.046C130.904 76.13 130.854 76.2933 130.854 76.536V78.328C130.854 78.7293 130.923 78.9813 131.06 79.084C131.207 79.1773 131.486 79.224 131.898 79.224H132.874C133.47 79.224 133.891 79.0607 134.139 78.734C134.386 78.4073 134.528 78.0153 134.565 77.558H134.881L134.771 79.728H128.916Z" fill="#B27A41"/>
<path d="M121.696 79.728V79.406C121.898 79.3967 122.058 79.3687 122.177 79.322C122.296 79.2753 122.383 79.1773 122.438 79.028C122.493 78.8787 122.521 78.6453 122.521 78.328V73.778C122.521 73.4513 122.489 73.218 122.424 73.078C122.36 72.9287 122.246 72.8307 122.081 72.784C121.916 72.7373 121.673 72.7093 121.352 72.7V72.378H122.521C123.089 72.378 123.538 72.3687 123.867 72.35C124.206 72.322 124.509 72.308 124.774 72.308C125.755 72.308 126.456 72.4713 126.877 72.798C127.308 73.1247 127.523 73.5353 127.523 74.03C127.523 74.282 127.463 74.5527 127.344 74.842C127.225 75.122 127.028 75.3787 126.753 75.612C126.478 75.8453 126.107 76.0227 125.64 76.144C125.173 76.256 124.596 76.2793 123.909 76.214V75.794C124.403 75.8407 124.806 75.8173 125.118 75.724C125.439 75.6307 125.686 75.4953 125.86 75.318C126.034 75.1407 126.153 74.9493 126.217 74.744C126.281 74.5293 126.314 74.324 126.314 74.128C126.314 73.6333 126.162 73.2927 125.86 73.106C125.558 72.91 125.164 72.812 124.678 72.812C124.321 72.812 124.055 72.868 123.881 72.98C123.716 73.0827 123.634 73.3487 123.634 73.778V78.328C123.634 78.6453 123.666 78.8787 123.73 79.028C123.803 79.1773 123.941 79.2753 124.142 79.322C124.353 79.3687 124.66 79.3967 125.063 79.406V79.728H121.696Z" fill="#B27A41"/>
<path d="M109.831 79.728H108.168V79.406C108.37 79.3967 108.53 79.3687 108.649 79.322C108.768 79.2753 108.855 79.1773 108.91 79.028C108.965 78.8787 108.993 78.6453 108.993 78.328V73.778C108.993 73.4513 108.961 73.218 108.897 73.078C108.832 72.9287 108.718 72.8307 108.553 72.784C108.388 72.7373 108.145 72.7093 107.825 72.7V72.378H110.93V72.7C110.729 72.7093 110.569 72.7373 110.449 72.784C110.33 72.8307 110.243 72.9287 110.188 73.078C110.133 73.218 110.106 73.4513 110.106 73.778V78.314L114.146 72.378H115.809V72.7C115.608 72.7093 115.447 72.7373 115.328 72.784C115.209 72.8307 115.122 72.9287 115.067 73.078C115.012 73.218 114.985 73.4513 114.985 73.778V78.328C114.985 78.6453 115.017 78.8787 115.081 79.028C115.145 79.1773 115.259 79.2753 115.424 79.322C115.598 79.3687 115.841 79.3967 116.153 79.406V79.728H113.047V79.406C113.248 79.3967 113.409 79.3687 113.528 79.322C113.647 79.2753 113.734 79.1773 113.789 79.028C113.844 78.8787 113.871 78.6453 113.871 78.328V73.792L109.831 79.728ZM113.597 68.906L113.858 69.032C113.739 69.7693 113.505 70.306 113.157 70.642C112.809 70.9687 112.419 71.132 111.989 71.132C111.732 71.132 111.485 71.076 111.247 70.964C111.018 70.8427 110.83 70.642 110.683 70.362C110.546 70.0727 110.477 69.6807 110.477 69.186C110.642 69.1113 110.793 69.06 110.93 69.032C111.077 69.004 111.251 68.9853 111.453 68.976C111.444 69.4893 111.508 69.8627 111.645 70.096C111.783 70.32 111.998 70.432 112.291 70.432C112.584 70.432 112.832 70.306 113.033 70.054C113.235 69.7927 113.422 69.41 113.597 68.906Z" fill="#B27A41"/>
<path d="M100.37 79.728H98.7068V79.406C98.9083 79.3967 99.0687 79.3687 99.1878 79.322C99.3069 79.2753 99.3939 79.1773 99.4489 79.028C99.5039 78.8787 99.5313 78.6453 99.5313 78.328V73.778C99.5313 73.4513 99.4993 73.218 99.4351 73.078C99.371 72.9287 99.2565 72.8307 99.0916 72.784C98.9267 72.7373 98.6839 72.7093 98.3632 72.7V72.378H101.469V72.7C101.267 72.7093 101.107 72.7373 100.988 72.784C100.869 72.8307 100.782 72.9287 100.727 73.078C100.672 73.218 100.644 73.4513 100.644 73.778V78.314L104.685 72.378H106.348V72.7C106.146 72.7093 105.986 72.7373 105.867 72.784C105.748 72.8307 105.661 72.9287 105.606 73.078C105.551 73.218 105.523 73.4513 105.523 73.778V78.328C105.523 78.6453 105.555 78.8787 105.619 79.028C105.683 79.1773 105.798 79.2753 105.963 79.322C106.137 79.3687 106.38 79.3967 106.691 79.406V79.728H103.585V79.406C103.787 79.3967 103.947 79.3687 104.066 79.322C104.185 79.2753 104.273 79.1773 104.328 79.028C104.382 78.8787 104.41 78.6453 104.41 78.328V73.792L100.37 79.728Z" fill="#B27A41"/>
<path d="M96.1547 78.286C96.3929 78.594 96.5899 78.832 96.7456 79C96.9106 79.1587 97.0663 79.266 97.2129 79.322C97.3686 79.378 97.5473 79.406 97.7489 79.406V79.728C97.5198 79.784 97.277 79.812 97.0205 79.812C96.6632 79.812 96.3654 79.7653 96.1272 79.672C95.8982 79.5693 95.6966 79.434 95.5226 79.266C95.3576 79.098 95.1973 78.9113 95.0416 78.706L93.2275 76.326C93.026 76.0647 92.8657 75.934 92.7466 75.934C92.6733 75.934 92.6045 75.962 92.5404 76.018C92.4854 76.0647 92.458 76.172 92.458 76.34L92.4717 78.328C92.4717 78.6453 92.4992 78.8787 92.5542 79.028C92.6183 79.1773 92.7374 79.2753 92.9115 79.322C93.0855 79.3687 93.3329 79.3967 93.6536 79.406V79.728H90.5203V79.406C90.7218 79.3967 90.8821 79.3687 91.0013 79.322C91.1204 79.2753 91.2074 79.1773 91.2624 79.028C91.3173 78.8787 91.3448 78.6453 91.3448 78.328V73.778C91.3448 73.4513 91.3127 73.218 91.2486 73.078C91.1845 72.9287 91.07 72.8307 90.9051 72.784C90.7401 72.7373 90.4974 72.7093 90.1767 72.7V72.378H93.2825V72.7C93.081 72.7093 92.9206 72.7373 92.8015 72.784C92.6824 72.8307 92.5954 72.9287 92.5404 73.078C92.4854 73.218 92.458 73.4513 92.458 73.778V75.416H92.4854L94.6705 73.68C94.8996 73.4933 95.0416 73.3533 95.0965 73.26C95.1607 73.1667 95.1927 73.0827 95.1927 73.008C95.1927 72.9147 95.1469 72.8447 95.0553 72.798C94.9637 72.742 94.8125 72.7093 94.6018 72.7V72.378H97.1991V72.7C96.9976 72.7187 96.7915 72.7887 96.5807 72.91C96.3792 73.0313 96.1318 73.2087 95.8386 73.442L93.9696 74.968C93.8231 75.08 93.8231 75.234 93.9696 75.43L96.1547 78.286Z" fill="#B27A41"/>
<path d="M85.9781 79.938C85.3185 79.938 84.7458 79.826 84.2603 79.602C83.7747 79.378 83.3762 79.084 83.0647 78.72C82.7532 78.3467 82.5196 77.936 82.3638 77.488C82.2172 77.0307 82.1439 76.5733 82.1439 76.116C82.1439 75.3973 82.3134 74.7393 82.6524 74.142C83.0005 73.5447 83.4861 73.0687 84.1091 72.714C84.7321 72.35 85.4605 72.168 86.2942 72.168C86.7523 72.168 87.1966 72.2193 87.6272 72.322C88.0578 72.4247 88.4289 72.546 88.7404 72.686V74.492H88.4243C88.3327 73.876 88.0624 73.428 87.6135 73.148C87.1737 72.868 86.6652 72.728 86.088 72.728C85.2268 72.728 84.558 73.008 84.0816 73.568C83.6144 74.1187 83.3808 74.8747 83.3808 75.836C83.3808 76.2653 83.4311 76.69 83.5319 77.11C83.6327 77.53 83.7884 77.9127 83.9992 78.258C84.219 78.594 84.4939 78.8647 84.8237 79.07C85.1627 79.2753 85.5658 79.378 86.0331 79.378C86.4728 79.378 86.8805 79.2847 87.2562 79.098C87.6318 78.9113 87.9479 78.6453 88.2044 78.3C88.4701 77.9547 88.6442 77.544 88.7266 77.068H89.0427L88.9602 78.664C88.6762 79.0467 88.2731 79.3547 87.7509 79.588C87.2378 79.8213 86.6469 79.938 85.9781 79.938Z" fill="#B27A41"/>
<path d="M76.4548 79.896C76.1891 79.896 75.9693 79.812 75.7952 79.644C75.6211 79.4667 75.5341 79.2427 75.5341 78.972C75.5341 78.8413 75.5478 78.6687 75.5753 78.454C75.612 78.2393 75.6578 78.0573 75.7127 77.908H76.0288C76.0655 78.1973 76.1342 78.426 76.235 78.594C76.3357 78.762 76.4869 78.846 76.6885 78.846C76.945 78.846 77.1878 78.7247 77.4168 78.482C77.6459 78.2393 77.8474 77.9687 78.0215 77.67L75.4379 73.484C75.3096 73.26 75.1997 73.0967 75.1081 72.994C75.0256 72.882 74.9386 72.8073 74.847 72.77C74.7553 72.7327 74.6225 72.7093 74.4484 72.7V72.378H77.2519L77.2382 72.7C76.9267 72.7093 76.716 72.7467 76.606 72.812C76.5052 72.8773 76.4732 72.966 76.5098 73.078C76.5465 73.19 76.6106 73.3253 76.7022 73.484L78.6124 76.564L80.1791 73.484C80.289 73.2693 80.289 73.0873 80.1791 72.938C80.0783 72.7887 79.8126 72.7093 79.382 72.7V72.378H81.8007V72.7C81.5991 72.7187 81.4205 72.798 81.2647 72.938C81.109 73.078 80.9716 73.26 80.8525 73.484L78.846 77.348C78.6262 77.7773 78.3925 78.188 78.1452 78.58C77.907 78.9627 77.6504 79.28 77.3756 79.532C77.1007 79.7747 76.7938 79.896 76.4548 79.896Z" fill="#B27A41"/>
<path d="M73.2779 82.458C73.2687 82.0193 73.2046 81.59 73.0855 81.17C72.9755 80.75 72.8152 80.4047 72.6045 80.134C72.4029 79.8633 72.151 79.728 71.8486 79.728H66.2829V79.406C66.4845 79.3967 66.6448 79.3687 66.7639 79.322C66.883 79.2753 66.97 79.1773 67.025 79.028C67.08 78.8787 67.1074 78.6453 67.1074 78.328V73.778C67.1074 73.4513 67.0754 73.218 67.0113 73.078C66.9471 72.9287 66.8326 72.8307 66.6677 72.784C66.5028 72.7373 66.26 72.7093 65.9393 72.7V72.378H69.0452V72.7C68.8436 72.7093 68.6833 72.7373 68.5642 72.784C68.4451 72.8307 68.358 72.9287 68.3031 73.078C68.2481 73.218 68.2206 73.4513 68.2206 73.778V78.328C68.2206 78.5893 68.2527 78.7853 68.3168 78.916C68.3809 79.0373 68.4954 79.1213 68.6604 79.168C68.8344 79.2053 69.0772 79.224 69.3887 79.224H70.763C71.0653 79.224 71.276 79.1727 71.3951 79.07C71.5234 78.9673 71.5875 78.72 71.5875 78.328V73.778C71.5875 73.4513 71.5555 73.218 71.4913 73.078C71.4272 72.9287 71.3127 72.8307 71.1478 72.784C70.9829 72.7373 70.7401 72.7093 70.4194 72.7V72.378H73.5252V72.7C73.3237 72.7093 73.1633 72.7373 73.0442 72.784C72.9251 72.8307 72.8381 72.9287 72.7831 73.078C72.7282 73.218 72.7007 73.4513 72.7007 73.778V78.328C72.7007 78.6453 72.7327 78.8787 72.7969 79.028C72.861 79.1773 72.9755 79.2753 73.1404 79.322C73.3145 79.3687 73.5573 79.3967 73.8688 79.406L73.5939 82.458H73.2779Z" fill="#B27A41"/>
<path d="M63.6377 78.328C63.6377 78.6453 63.6698 78.8787 63.7339 79.028C63.7981 79.1773 63.9126 79.2753 64.0775 79.322C64.2516 79.3687 64.4943 79.3967 64.8058 79.406V79.728H61.7V79.406C61.9016 79.3967 62.0619 79.3687 62.181 79.322C62.3001 79.2753 62.3872 79.1773 62.4421 79.028C62.4971 78.8787 62.5246 78.6453 62.5246 78.328V75.626C62.4055 75.7007 62.2268 75.738 61.9886 75.738H59.3363C59.1347 75.738 58.9882 75.7707 58.8965 75.836C58.8049 75.9013 58.7591 76.0273 58.7591 76.214V78.328C58.7591 78.6453 58.7912 78.8787 58.8553 79.028C58.9194 79.1773 59.034 79.2753 59.1989 79.322C59.3729 79.3687 59.6157 79.3967 59.9272 79.406V79.728H56.8214V79.406C57.023 79.3967 57.1833 79.3687 57.3024 79.322C57.4215 79.2753 57.5085 79.1773 57.5635 79.028C57.6185 78.8787 57.646 78.6453 57.646 78.328V73.778C57.646 73.4513 57.6139 73.218 57.5498 73.078C57.4856 72.9287 57.3711 72.8307 57.2062 72.784C57.0413 72.7373 56.7985 72.7093 56.4778 72.7V72.378H59.5837V72.7C59.3821 72.7093 59.2218 72.7373 59.1027 72.784C58.9836 72.8307 58.8965 72.9287 58.8416 73.078C58.7866 73.218 58.7591 73.4513 58.7591 73.778V75.346C58.8782 75.2713 59.0614 75.234 59.3088 75.234H61.9611C62.1444 75.234 62.2772 75.2107 62.3597 75.164C62.4513 75.1173 62.5063 75.0333 62.5246 74.912V73.778C62.5246 73.4513 62.4925 73.218 62.4284 73.078C62.3642 72.9287 62.2497 72.8307 62.0848 72.784C61.9199 72.7373 61.6771 72.7093 61.3565 72.7V72.378H64.4623V72.7C64.2607 72.7093 64.1004 72.7373 63.9813 72.784C63.8622 72.8307 63.7752 72.9287 63.7202 73.078C63.6652 73.218 63.6377 73.4513 63.6377 73.778V78.328Z" fill="#B27A41"/>
<path d="M54.7975 78.328C54.9166 78.664 55.022 78.9067 55.1136 79.056C55.2144 79.196 55.3243 79.2847 55.4434 79.322C55.5625 79.3593 55.7137 79.3873 55.8969 79.406V79.728H52.9423V79.406C53.208 79.3873 53.4095 79.3593 53.547 79.322C53.6844 79.2753 53.7577 79.1773 53.7668 79.028C53.7852 78.8787 53.7348 78.6453 53.6157 78.328L53.1072 76.844C53.0614 76.8907 52.9927 76.9233 52.9011 76.942C52.8094 76.9513 52.7132 76.956 52.6125 76.956H51.3344C51.142 76.956 50.9954 76.9793 50.8946 77.026C50.7939 77.0727 50.7114 77.1847 50.6473 77.362L50.2762 78.328C50.1388 78.7013 50.1296 78.972 50.2487 79.14C50.377 79.2987 50.6977 79.3873 51.2107 79.406V79.728H48.6546V79.406C48.8745 79.3873 49.0623 79.294 49.218 79.126C49.3738 78.958 49.5204 78.692 49.6578 78.328L51.5543 73.47C51.6459 73.2367 51.7284 73.0033 51.8017 72.77C51.8841 72.5367 51.9574 72.2987 52.0215 72.056H52.6399C52.7041 72.2987 52.7774 72.5367 52.8598 72.77C52.9423 73.0033 53.0202 73.2367 53.0935 73.47L54.7975 78.328ZM52.5987 76.452C52.7361 76.452 52.8232 76.4287 52.8598 76.382C52.8965 76.326 52.8827 76.2187 52.8186 76.06L52.0353 73.792H52.0078L50.9771 76.508C51.0229 76.48 51.0733 76.466 51.1283 76.466C51.1924 76.4567 51.2611 76.452 51.3344 76.452H52.5987Z" fill="#B27A41"/>
<path d="M42.9983 79.728V79.406C43.1999 79.3967 43.3602 79.3687 43.4793 79.322C43.5984 79.2753 43.6854 79.1773 43.7404 79.028C43.7954 78.8787 43.8229 78.6453 43.8229 78.328V73.778C43.8229 73.4513 43.7908 73.218 43.7267 73.078C43.6625 72.9287 43.548 72.8307 43.3831 72.784C43.2182 72.7373 42.9754 72.7093 42.6548 72.7V72.378H43.8229C44.3909 72.378 44.8398 72.3687 45.1696 72.35C45.5086 72.322 45.811 72.308 46.0767 72.308C47.057 72.308 47.7578 72.4713 48.1793 72.798C48.6099 73.1247 48.8252 73.5353 48.8252 74.03C48.8252 74.282 48.7656 74.5527 48.6465 74.842C48.5274 75.122 48.3304 75.3787 48.0556 75.612C47.7807 75.8453 47.4097 76.0227 46.9424 76.144C46.4752 76.256 45.898 76.2793 45.2109 76.214V75.794C45.7056 75.8407 46.1087 75.8173 46.4202 75.724C46.7409 75.6307 46.9882 75.4953 47.1623 75.318C47.3364 75.1407 47.4555 74.9493 47.5196 74.744C47.5838 74.5293 47.6158 74.324 47.6158 74.128C47.6158 73.6333 47.4647 73.2927 47.1623 73.106C46.86 72.91 46.466 72.812 45.9805 72.812C45.6231 72.812 45.3575 72.868 45.1834 72.98C45.0185 73.0827 44.936 73.3487 44.936 73.778V78.328C44.936 78.6453 44.9681 78.8787 45.0322 79.028C45.1055 79.1773 45.2429 79.2753 45.4445 79.322C45.6552 79.3687 45.9621 79.3967 46.3652 79.406V79.728H42.9983Z" fill="#B27A41"/>
<path d="M36.1173 79.728V79.406C36.4013 79.3967 36.6029 79.3453 36.722 79.252C36.8502 79.1587 36.9235 78.916 36.9418 78.524C36.2822 78.496 35.6913 78.3933 35.169 78.216C34.656 78.0387 34.2483 77.7727 33.946 77.418C33.6528 77.0633 33.5062 76.606 33.5062 76.046C33.5062 75.514 33.6528 75.0707 33.946 74.716C34.2483 74.352 34.656 74.0767 35.169 73.89C35.6913 73.694 36.2822 73.582 36.9418 73.554C36.9235 73.1807 36.8319 72.9473 36.667 72.854C36.5112 72.7607 36.2135 72.7093 35.7737 72.7V72.378H38.7421V72.7C38.4673 72.7093 38.2657 72.7607 38.1374 72.854C38.0092 72.9473 37.9359 73.1807 37.9176 73.554C38.5772 73.5727 39.1636 73.6707 39.6766 73.848C40.1988 74.0253 40.6065 74.2913 40.8997 74.646C41.202 75.0007 41.3532 75.458 41.3532 76.018C41.3532 76.5593 41.202 77.012 40.8997 77.376C40.5974 77.74 40.1851 78.0153 39.6629 78.202C39.1498 78.3887 38.568 78.496 37.9176 78.524C37.9267 78.7853 37.968 78.9767 38.0412 79.098C38.1145 79.2193 38.2336 79.2987 38.3986 79.336C38.5635 79.3733 38.7925 79.3967 39.0857 79.406V79.728H36.1173ZM34.6331 75.934C34.6331 76.4287 34.7384 76.8347 34.9492 77.152C35.169 77.46 35.4531 77.6933 35.8012 77.852C36.1585 78.0107 36.5387 78.0993 36.9418 78.118V73.946C36.2639 73.974 35.7096 74.142 35.279 74.45C34.8484 74.7487 34.6331 75.2433 34.6331 75.934ZM40.2263 76.13C40.2263 75.6447 40.1164 75.248 39.8965 74.94C39.6858 74.6227 39.4018 74.3847 39.0445 74.226C38.6963 74.0673 38.3207 73.974 37.9176 73.946V78.132C38.5955 78.104 39.1498 77.936 39.5804 77.628C40.011 77.32 40.2263 76.8207 40.2263 76.13Z" fill="#B27A41"/>
</svg>
