<svg width="31" height="31" viewBox="0 0 31 31" fill="none" xmlns="http://www.w3.org/2000/svg">
<path d="M15.4785 0C9.21377 0 4.11719 5.09658 4.11719 11.3613C4.11719 14.2392 5.93052 18.3053 9.50704 23.4468C12.1212 27.2052 14.6923 30.1136 14.8006 30.2356L15.4785 31L16.1566 30.2356C16.2646 30.1136 18.8358 27.2052 21.4501 23.4468C25.0264 18.3053 26.84 14.2392 26.84 11.3613C26.84 5.09658 21.7432 0 15.4785 0ZM19.9722 22.3971C18.2052 24.9392 16.4193 27.1269 15.4785 28.243C14.54 27.13 12.7607 24.9505 10.9949 22.4118C7.68118 17.648 5.92957 13.8267 5.92957 11.3613C5.92957 6.09608 10.2133 1.81239 15.4785 1.81239C20.7439 1.81239 25.0274 6.09608 25.0274 11.3613C25.0274 13.8241 23.2793 17.6402 19.9722 22.3971Z" fill="#F5F5F5"/>
<path d="M15.4785 4.19897C11.7811 4.19897 8.77319 7.20692 8.77319 10.9043C8.77319 14.6017 11.7811 17.6099 15.4785 17.6099C19.1761 17.6099 22.1841 14.6017 22.1841 10.9043C22.1841 7.20692 19.1761 4.19897 15.4785 4.19897ZM15.4785 15.7975C12.7806 15.7975 10.5856 13.6024 10.5856 10.9043C10.5856 8.20642 12.7806 6.01136 15.4785 6.01136C18.1766 6.01136 20.3717 8.20642 20.3717 10.9043C20.3717 13.6024 18.1766 15.7975 15.4785 15.7975Z" fill="#F5F5F5"/>
</svg>
