<svg width="31" height="31" viewBox="0 0 31 31" fill="none" xmlns="http://www.w3.org/2000/svg">
<path d="M24.5416 12.9494V6.45835C24.5416 5.03363 23.3831 3.875 21.9583 3.875H2.58329C1.15856 3.875 0 5.03356 0 6.45835V19.375C0 20.7997 1.15856 21.9584 2.58335 21.9584H17.0671C17.9133 24.9356 20.6509 27.125 23.8959 27.125C25.1446 27.125 26.3726 26.7964 27.4486 26.1739C27.757 25.9954 27.8629 25.6006 27.6838 25.2916C27.5053 24.9825 27.1099 24.8759 26.8014 25.0564C25.9222 25.5647 24.9175 25.8334 23.8958 25.8334C20.6906 25.8334 18.0833 23.226 18.0833 20.0209C18.0833 16.8157 20.6906 14.2084 23.8958 14.2084C27.101 14.2084 29.7083 16.8157 29.7083 20.0209V20.6667C29.7083 21.3787 29.1287 21.9584 28.4166 21.9584C27.7046 21.9584 27.125 21.3787 27.125 20.6667V18.0834C27.125 17.7264 26.8361 17.4375 26.4791 17.4375C26.3054 17.4375 26.1493 17.5078 26.0334 17.6191C25.4626 17.1105 24.7187 16.7916 23.8958 16.7916C22.1154 16.7916 20.6666 18.2404 20.6666 20.0208C20.6666 21.8012 22.1154 23.25 23.8959 23.25C24.8583 23.25 25.7141 22.8182 26.3062 22.1479C26.7741 22.8125 27.5438 23.25 28.4167 23.25C29.8414 23.25 31 22.0914 31 20.6666V20.0208C31 16.3216 28.157 13.2772 24.5416 12.9494ZM2.58335 5.16665H21.9584C21.9852 5.16665 22.0078 5.18039 22.0343 5.18203L12.8019 12.7603C12.4733 12.9671 11.9971 12.9242 11.7833 12.7931L2.50821 5.1819C2.53443 5.18033 2.55671 5.16665 2.58335 5.16665ZM23.25 12.9494C19.6347 13.2772 16.7916 16.3216 16.7916 20.0209C16.7916 20.2388 16.805 20.4536 16.8243 20.6667H2.58335C1.87132 20.6667 1.29171 20.0871 1.29171 19.3751V6.45835C1.29171 6.27544 1.33209 6.1027 1.40099 5.94492L11.0209 13.8337C11.3967 14.0791 11.8288 14.2084 12.2709 14.2084C12.696 14.2084 13.1116 14.0886 13.4774 13.8615C13.514 13.842 13.5487 13.8187 13.5815 13.7915L23.1407 5.94479C23.2096 6.1027 23.2501 6.27544 23.2501 6.45841L23.25 12.9494ZM23.8959 21.9584C22.8274 21.9584 21.9584 21.0893 21.9584 20.0209C21.9584 18.9524 22.8274 18.0834 23.8959 18.0834C24.9643 18.0834 25.8334 18.9524 25.8334 20.0209C25.8334 21.0893 24.9643 21.9584 23.8959 21.9584Z" fill="#F5F5F5"/>
</svg>
